<svg id="Ebene_1" data-name="Ebene 1" xmlns="http://www.w3.org/2000/svg" xmlns:xlink="http://www.w3.org/1999/xlink" viewBox="0 0 1713.21 715.61"><defs><style>.cls-1{fill:none;}.cls-2{clip-path:url(#clip-path);}.cls-3{fill:#c465e2;}.cls-4{fill:#fff;opacity:0.05;isolation:isolate;}.cls-5{fill:#e0acef;}</style><clipPath id="clip-path" transform="translate(21.41 -8.83)"><rect class="cls-1" width="1692" height="517"/></clipPath></defs><g class="cls-2"><path class="cls-3" d="M-21.41,552C40.8,473,136.43,319.69,230.2,246.51,577.76-24.17,734.25,278.46,1296.48,42.12,1652.93-107.72,1702,281.3,1690.27,550.85Z" transform="translate(21.41 -8.83)"/><path class="cls-4" d="M243.48,724.43c-41.4-185.71,96.46-248,228-344.26,255.55-186.63,370.26-9.86,783.64-172.8s264.58,517.07,264.58,517.07Z" transform="translate(21.41 -8.83)"/><path class="cls-5" d="M1656.32,724.43c41.4-185.71-96.46-248-228-344.26C1172.74,193.54,1058,370.31,644.65,207.36S380.08,724.43,380.08,724.43Z" transform="translate(21.41 -8.83)"/></g></svg>