<svg id="Ebene_1" data-name="Ebene 1" xmlns="http://www.w3.org/2000/svg" xmlns:xlink="http://www.w3.org/1999/xlink" viewBox="0 0 494.84 638.6"><defs><style>.cls-1{fill:none;}.cls-2{fill:#c465e2;}.cls-3{clip-path:url(#clip-path);}.cls-4{opacity:0.3;isolation:isolate;fill:url(#Unbenannter_Verlauf);}</style><clipPath id="clip-path" transform="translate(0 0)"><path class="cls-1" d="M175.54,0C-.81,0,242.6,208.92,86.94,319.3S-.81,638.6,175.54,638.6s319.3-143,319.3-319.3S351.88,0,175.54,0Z"/></clipPath><linearGradient id="Unbenannter_Verlauf" x1="142.21" y1="466.27" x2="142.21" y2="467.27" gradientTransform="matrix(494.84, 0, 0, -638.6, -70124.75, 298396.23)" gradientUnits="userSpaceOnUse"><stop offset="0" stop-color="#dddff9"/><stop offset="1" stop-color="#5864ff"/></linearGradient></defs><path class="cls-2" d="M175.54,0C-.81,0,242.6,208.92,86.94,319.3S-.81,638.6,175.54,638.6s319.3-143,319.3-319.3S351.88,0,175.54,0Z" transform="translate(0 0)"/><g class="cls-3"><path class="cls-4" d="M319.3,638.6c176.34,0-67.07-208.92,88.59-319.3S495.65,0,319.3,0,0,143,0,319.3,143,638.6,319.3,638.6Z" transform="translate(0 0)"/></g></svg>